<svg width="76" height="76" viewBox="0 0 76 76" fill="none" xmlns="http://www.w3.org/2000/svg">
<path d="M70.5714 29.8571H46.1429V5.42857C46.1429 2.43098 43.7119 0 40.7143 0H35.2857C32.2881 0 29.8571 2.43098 29.8571 5.42857V29.8571H5.42857C2.43098 29.8571 0 32.2881 0 35.2857V40.7143C0 43.7119 2.43098 46.1429 5.42857 46.1429H29.8571V70.5714C29.8571 73.569 32.2881 76 35.2857 76H40.7143C43.7119 76 46.1429 73.569 46.1429 70.5714V46.1429H70.5714C73.569 46.1429 76 43.7119 76 40.7143V35.2857C76 32.2881 73.569 29.8571 70.5714 29.8571Z" fill="#A3ADB2" fill-opacity="0.6"/>
</svg>
