<svg width="35" height="32" viewBox="0 0 35 32" fill="none" xmlns="http://www.w3.org/2000/svg">
<g filter="url(#filter0_d_44_1011)">
<path d="M29.9753 0.46159C29.5263 1.38477 29.0773 2.30796 28.6283 3.23114C28.1793 4.12013 27.7303 5.02622 27.2813 5.94941C27.2123 6.12036 26.7287 7.18032 25.8308 9.12926L18.3189 25.644H13.8636L7.75047 12.1552C6.61074 9.59085 5.28105 6.8042 3.76141 3.79531C3.48511 3.24824 2.89797 2.1199 2 0.410303V0H11.3251L12.3094 3.33372L12.1022 3.69273C11.515 3.52177 10.7552 3.35081 9.82271 3.17985C8.92474 3.00889 8.2858 2.92341 7.90589 2.92341L16.4021 22.3103L22.0489 9.3857C22.8433 7.50514 23.4477 6.01779 23.8621 4.92364C24.0003 4.58172 24.1212 4.2569 24.2248 3.94917C24.3629 3.60725 24.4838 3.26533 24.5874 2.92341C24.2421 2.92341 23.6031 3.00889 22.6706 3.17985C21.7726 3.35081 21.0128 3.52177 20.3911 3.69273L20.1839 3.43629L21.22 0H29.9753V0.46159Z" fill="#5CD8E5"/>
<path d="M32.3066 0.461595C31.8576 1.38478 31.4086 2.30796 30.9596 3.23115C30.5106 4.12014 30.0616 5.02622 29.6126 5.94941C29.5436 6.12037 29.06 7.18032 28.1621 9.12926L20.6502 25.644L16.1949 25.644L10.0818 12.1552C8.94204 9.59085 7.61235 6.8042 6.0927 3.79531C5.8164 3.24824 5.22927 2.1199 4.3313 0.410303L4.3313 0L13.6564 1.63045e-06L14.6407 3.33372L14.4335 3.69273C13.8463 3.52177 13.0865 3.35081 12.154 3.17985C11.256 3.00889 10.6171 2.92341 10.2372 2.92341L18.7334 22.3103L24.3802 9.3857C25.1746 7.50514 25.779 6.01779 26.1934 4.92365C26.3316 4.58173 26.4525 4.2569 26.5561 3.94918C26.6942 3.60726 26.8151 3.26534 26.9187 2.92342C26.5734 2.92342 25.9344 3.0089 25.0019 3.17986C24.1039 3.35082 23.3441 3.52178 22.7224 3.69273L22.5152 3.4363L23.5513 3.36054e-06L32.3066 4.89135e-06L32.3066 0.461595Z" fill="#B7F8FF"/>
</g>
<defs>
<filter id="filter0_d_44_1011" x="0" y="0" width="34.3066" height="31.644" filterUnits="userSpaceOnUse" color-interpolation-filters="sRGB">
<feFlood flood-opacity="0" result="BackgroundImageFix"/>
<feColorMatrix in="SourceAlpha" type="matrix" values="0 0 0 0 0 0 0 0 0 0 0 0 0 0 0 0 0 0 127 0" result="hardAlpha"/>
<feOffset dy="4"/>
<feGaussianBlur stdDeviation="1"/>
<feComposite in2="hardAlpha" operator="out"/>
<feColorMatrix type="matrix" values="0 0 0 0 0 0 0 0 0 0 0 0 0 0 0 0 0 0 0.05 0"/>
<feBlend mode="normal" in2="BackgroundImageFix" result="effect1_dropShadow_44_1011"/>
<feBlend mode="normal" in="SourceGraphic" in2="effect1_dropShadow_44_1011" result="shape"/>
</filter>
</defs>
</svg>
