<svg width="65" height="59" viewBox="0 0 65 59" fill="none" xmlns="http://www.w3.org/2000/svg">
<path d="M65 1.06201C63.9568 3.18601 62.9136 5.31001 61.8704 7.43401C60.8272 9.47934 59.784 11.564 58.7407 13.688C58.5802 14.0813 57.4568 16.52 55.3704 21.004L37.9167 59L27.5648 59L13.3611 27.966C10.713 22.066 7.62345 15.6547 4.09259 8.732C3.45062 7.47333 2.08642 4.87733 -1.65054e-07 0.943999L0 0L21.6667 3.78832e-06L23.9537 7.67L23.4722 8.496C22.108 8.10266 20.3426 7.70933 18.1759 7.316C16.0895 6.92267 14.6049 6.726 13.7222 6.726L33.463 51.33L46.5833 21.594C48.429 17.2673 49.8333 13.8453 50.7963 11.328C51.1173 10.5413 51.3981 9.794 51.6389 9.08601C51.9599 8.29934 52.2407 7.51267 52.4815 6.72601C51.679 6.72601 50.1944 6.92267 48.0278 7.316C45.9414 7.70934 44.1759 8.10267 42.7315 8.496L42.25 7.906L44.6574 7.80815e-06L65 1.1365e-05L65 1.06201Z" fill="#B7F8FF"/>
</svg>
