<svg width="35" height="32" viewBox="0 0 35 32" fill="none" xmlns="http://www.w3.org/2000/svg">
<g filter="url(#filter0_d_44_2826)">
<path d="M29.9753 0.46159C29.5263 1.38477 29.0773 2.30796 28.6283 3.23114C28.1793 4.12013 27.7303 5.02622 27.2813 5.94941C27.2123 6.12036 26.7287 7.18032 25.8308 9.12926L18.3189 25.644H13.8636L7.75047 12.1552C6.61074 9.59085 5.28105 6.8042 3.76141 3.79531C3.48511 3.24824 2.89797 2.1199 2 0.410303V0H11.3251L12.3094 3.33372L12.1022 3.69273C11.515 3.52177 10.7552 3.35081 9.82271 3.17985C8.92474 3.00889 8.2858 2.92341 7.90589 2.92341L16.4021 22.3103L22.0489 9.3857C22.8433 7.50514 23.4477 6.01779 23.8621 4.92365C24.0003 4.58172 24.1212 4.2569 24.2248 3.94917C24.3629 3.60725 24.4838 3.26533 24.5874 2.92341C24.2421 2.92341 23.6031 3.00889 22.6706 3.17985C21.7726 3.35081 21.0128 3.52177 20.3911 3.69273L20.1839 3.43629L21.22 0H29.9753V0.46159Z" fill="#5CD8E5"/>
<path d="M32.3063 0.461595C31.8573 1.38478 31.4083 2.30796 30.9594 3.23115C30.5104 4.12014 30.0614 5.02622 29.6124 5.94941C29.5433 6.12037 29.0598 7.18032 28.1618 9.12926L20.65 25.644L16.1946 25.644L10.0815 12.1552C8.94179 9.59085 7.6121 6.8042 6.09246 3.79531C5.81616 3.24824 5.22903 2.1199 4.33105 0.410303L4.33105 0L13.6561 1.63045e-06L14.6405 3.33372L14.4332 3.69273C13.8461 3.52177 13.0863 3.35081 12.1538 3.17985C11.2558 3.00889 10.6169 2.92341 10.2369 2.92341L18.7331 22.3103L24.38 9.3857C25.1744 7.50514 25.7788 6.01779 26.1932 4.92365C26.3314 4.58173 26.4522 4.2569 26.5558 3.94918C26.694 3.60726 26.8149 3.26534 26.9185 2.92342C26.5731 2.92342 25.9342 3.0089 25.0017 3.17986C24.1037 3.35082 23.3439 3.52177 22.7222 3.69273L22.515 3.4363L23.5511 3.36054e-06L32.3063 4.89135e-06L32.3063 0.461595Z" fill="#B7F8FF"/>
</g>
<defs>
<filter id="filter0_d_44_2826" x="0" y="0" width="34.3062" height="31.644" filterUnits="userSpaceOnUse" color-interpolation-filters="sRGB">
<feFlood flood-opacity="0" result="BackgroundImageFix"/>
<feColorMatrix in="SourceAlpha" type="matrix" values="0 0 0 0 0 0 0 0 0 0 0 0 0 0 0 0 0 0 127 0" result="hardAlpha"/>
<feOffset dy="4"/>
<feGaussianBlur stdDeviation="1"/>
<feComposite in2="hardAlpha" operator="out"/>
<feColorMatrix type="matrix" values="0 0 0 0 0 0 0 0 0 0 0 0 0 0 0 0 0 0 0.05 0"/>
<feBlend mode="normal" in2="BackgroundImageFix" result="effect1_dropShadow_44_2826"/>
<feBlend mode="normal" in="SourceGraphic" in2="effect1_dropShadow_44_2826" result="shape"/>
</filter>
</defs>
</svg>
