<svg width="47" height="32" viewBox="0 0 47 32" fill="none" xmlns="http://www.w3.org/2000/svg">
<path d="M31.4615 16.7221C31.1949 17.2703 30.9282 17.8186 30.6616 18.3669C30.3949 18.8948 30.1283 19.4329 29.8616 19.9812C29.8206 20.0827 29.5334 20.7122 29.0002 21.8697L24.539 31.6775H21.893L18.2625 23.6668C17.5857 22.1438 16.796 20.4889 15.8935 18.7019C15.7294 18.377 15.3807 17.7069 14.8474 16.6916V16.4479H20.3854L20.97 18.4278L20.8469 18.641C20.4983 18.5395 20.047 18.4379 19.4932 18.3364C18.9599 18.2349 18.5805 18.1841 18.3548 18.1841L23.4006 29.6977L26.7542 22.022C27.2259 20.9051 27.5849 20.0218 27.831 19.372C27.9131 19.169 27.9849 18.976 28.0464 18.7933C28.1284 18.5902 28.2002 18.3872 28.2618 18.1841C28.0566 18.1841 27.6772 18.2349 27.1234 18.3364C26.5901 18.4379 26.1388 18.5395 25.7696 18.641L25.6466 18.4887L26.2619 16.4479H31.4615V16.7221Z" fill="#5CD8E5"/>
<path d="M32.846 16.7221C32.5794 17.2703 32.3127 17.8186 32.0461 18.3669C31.7794 18.8948 31.5128 19.4329 31.2462 19.9812C31.2051 20.0827 30.918 20.7122 30.3847 21.8697L25.9235 31.6775L23.2775 31.6775L19.6471 23.6668C18.9702 22.1438 18.1805 20.4889 17.278 18.7019C17.1139 18.377 16.7652 17.7069 16.2319 16.6916L16.2319 16.4479L21.77 16.4479L22.3545 18.4278L22.2315 18.641C21.8828 18.5395 21.4315 18.4379 20.8777 18.3364C20.3444 18.2349 19.965 18.1841 19.7394 18.1841L24.7851 29.6977L28.1387 22.022C28.6105 20.9051 28.9694 20.0218 29.2155 19.372C29.2976 19.169 29.3694 18.976 29.4309 18.7933C29.513 18.5902 29.5847 18.3872 29.6463 18.1841C29.4412 18.1841 29.0617 18.2349 28.5079 18.3364C27.9746 18.4379 27.5234 18.5395 27.1542 18.641L27.0311 18.4887L27.6464 16.4479L32.846 16.4479L32.846 16.7221Z" fill="#B7F8FF"/>
<path d="M44.9406 12.2944V0H47.0007V12.2944H44.9406Z" fill="#383838"/>
<path d="M36.5474 12.4605C35.617 12.4605 34.7974 12.2667 34.0885 11.879C33.3796 11.4803 32.8258 10.9376 32.4271 10.2509C32.0284 9.56415 31.829 8.78329 31.829 7.90828C31.829 7.02219 32.0339 6.23579 32.4437 5.54908C32.8646 4.86236 33.435 4.32517 34.155 3.93751C34.886 3.54985 35.7167 3.35602 36.6471 3.35602C37.2119 3.35602 37.7325 3.42801 38.2088 3.572C38.6961 3.70491 39.117 3.89321 39.4715 4.13688C39.8259 4.36948 40.1083 4.62423 40.3188 4.90113C40.5403 5.17803 40.6677 5.46047 40.7009 5.74845L40.1693 5.73183V3.53877H42.2294V12.2944H40.1526V9.98504L40.6012 10.0681C40.568 10.3339 40.4351 10.6108 40.2025 10.8988C39.9699 11.1757 39.6708 11.4305 39.3053 11.6631C38.9398 11.8957 38.5189 12.0895 38.0427 12.2446C37.5775 12.3885 37.079 12.4605 36.5474 12.4605ZM37.079 10.6496C37.6993 10.6496 38.2476 10.5333 38.7238 10.3007C39.2001 10.057 39.5711 9.73029 39.837 9.32048C40.1028 8.89959 40.2357 8.42885 40.2357 7.90828C40.2357 7.37663 40.1028 6.9059 39.837 6.49608C39.5711 6.08627 39.2001 5.76506 38.7238 5.53246C38.2476 5.29987 37.6993 5.18357 37.079 5.18357C36.4477 5.18357 35.8939 5.29987 35.4176 5.53246C34.9414 5.76506 34.5703 6.08627 34.3045 6.49608C34.0387 6.9059 33.9057 7.37663 33.9057 7.90828C33.9057 8.42885 34.0387 8.89959 34.3045 9.32048C34.5703 9.73029 34.9414 10.057 35.4176 10.3007C35.8939 10.5333 36.4477 10.6496 37.079 10.6496Z" fill="#383838"/>
<path d="M23.283 16.1157L25.5591 11.8293L25.5092 13.1418L20.4586 3.53882H22.851L25.3597 8.65596C25.6034 9.12115 25.8194 9.55866 26.0077 9.96847C26.207 10.3783 26.351 10.7659 26.4396 11.1315L26.0243 11.1813C26.1572 10.849 26.3123 10.4669 26.4895 10.0349C26.6778 9.60296 26.8882 9.14331 27.1208 8.65596L29.4634 3.53882H31.8226L27.3036 12.3609L25.4262 16.1157H23.283Z" fill="#383838"/>
<path d="M15.0889 12.4605C14.0367 12.4605 13.1008 12.2667 12.2811 11.879C11.4726 11.4914 10.8357 10.9542 10.3705 10.2675C9.90533 9.56969 9.67273 8.78329 9.67273 7.90828C9.67273 7.02219 9.90533 6.23579 10.3705 5.54908C10.8357 4.86236 11.4726 4.32517 12.2811 3.93751C13.1008 3.54985 14.0367 3.35602 15.0889 3.35602C16.1301 3.35602 17.0549 3.54985 17.8635 3.93751C18.6831 4.32517 19.32 4.86236 19.7741 5.54908C20.2393 6.23579 20.4719 7.02219 20.4719 7.90828C20.4719 8.78329 20.2393 9.56969 19.7741 10.2675C19.32 10.9542 18.6831 11.4914 17.8635 11.879C17.0549 12.2667 16.1301 12.4605 15.0889 12.4605ZM15.0889 10.6496C15.7092 10.6496 16.2741 10.5333 16.7836 10.3007C17.2931 10.057 17.6918 9.73029 17.9798 9.32048C18.2788 8.91066 18.4173 8.43993 18.3951 7.90828C18.4173 7.36555 18.2788 6.88928 17.9798 6.47947C17.6918 6.06965 17.2931 5.74845 16.7836 5.51585C16.2741 5.28325 15.7092 5.16695 15.0889 5.16695C14.4576 5.16695 13.8872 5.28325 13.3777 5.51585C12.8682 5.74845 12.4694 6.07519 12.1815 6.49608C11.8935 6.9059 11.755 7.37663 11.7661 7.90828C11.755 8.43993 11.8935 8.91066 12.1815 9.32048C12.4694 9.73029 12.8682 10.057 13.3777 10.3007C13.8872 10.5333 14.4576 10.6496 15.0889 10.6496Z" fill="#383838"/>
<path d="M0 12.2944V0.664551H2.15983V10.3007H9.00484V12.2944H0Z" fill="#383838"/>
</svg>
